<?xml version="1.0" standalone="no"?>
<!DOCTYPE svg PUBLIC "-//W3C//DTD SVG 20010904//EN"
 "http://www.w3.org/TR/2001/REC-SVG-20010904/DTD/svg10.dtd">
<svg version="1.0" xmlns="http://www.w3.org/2000/svg"
 width="366.000000pt" height="366.000000pt" viewBox="0 0 366.000000 366.000000"
 preserveAspectRatio="xMidYMid meet">
<metadata>
Created by potrace 1.14, written by Peter Selinger 2001-2017
</metadata>
<g transform="translate(0.000000,366.000000) scale(0.100000,-0.100000)"
fill="#000000" stroke="none">
<path d="M1384 3510 c-32 -13 -74 -84 -91 -158 -9 -36 -18 -34 -72 14 -92 82
-142 46 -151 -109 -6 -103 1 -95 -114 -139 -35 -14 -67 -34 -80 -51 -20 -27
-20 -28 -2 -61 10 -19 30 -40 44 -47 15 -8 42 -24 59 -37 30 -23 32 -26 19
-50 -28 -57 -39 -118 -25 -143 6 -13 17 -27 23 -31 15 -10 90 -9 145 1 l44 9
-7 -52 c-3 -28 -6 -59 -6 -68 0 -12 -17 -21 -57 -33 -148 -43 -288 -150 -347
-266 -46 -89 -53 -164 -28 -282 l19 -87 -66 -42 c-200 -126 -315 -326 -328
-572 l-6 -108 -37 -27 c-41 -29 -97 -108 -130 -186 -30 -70 -38 -209 -17 -292
24 -91 63 -161 120 -216 72 -68 113 -65 170 16 12 17 16 16 77 -11 100 -46
196 -65 290 -60 74 4 80 3 86 -16 9 -28 77 -127 102 -147 82 -69 135 -85 169
-51 47 46 47 46 135 8 145 -62 262 -67 413 -19 67 21 175 93 225 150 22 25 43
44 46 41 3 -3 8 -32 11 -64 8 -83 23 -104 76 -104 51 0 89 22 151 86 l46 49 0
-61 c0 -70 17 -94 67 -94 49 0 110 39 182 116 54 58 71 84 91 144 23 67 28 74
70 95 57 29 132 95 169 149 53 77 74 151 77 266 2 81 8 123 28 182 14 43 28
93 32 113 7 38 15 43 34 20 21 -25 76 -19 99 11 23 29 61 142 61 179 0 18 7
24 34 29 52 10 140 62 201 119 47 45 55 58 55 90 0 51 -33 73 -87 58 -47 -13
-95 -14 -125 -2 -13 5 -31 12 -41 15 -15 5 -13 12 19 53 76 100 95 193 44 222
-24 13 -31 11 -90 -18 -53 -25 -77 -31 -132 -31 l-68 0 11 26 c5 15 23 44 39
64 35 44 38 80 10 105 -20 18 -20 18 -1 51 11 19 36 82 55 141 88 269 87 372
-2 410 -67 28 -181 42 -302 37 -217 -8 -340 -35 -457 -99 l-62 -34 -77 19
c-43 11 -105 20 -140 20 l-62 0 -28 47 c-17 29 -23 48 -16 51 6 2 22 12 36 23
34 27 33 66 -2 115 l-28 39 53 64 c59 72 69 114 33 146 -17 16 -32 17 -115 12
l-95 -5 0 82 c0 68 -3 86 -18 99 -25 23 -64 21 -109 -4 -110 -62 -146 -79
-153 -72 -4 4 -33 40 -65 78 -81 99 -87 103 -131 85z m1655 -825 c18 -18 3
-101 -44 -237 -55 -158 -127 -269 -211 -324 -27 -18 -27 -18 -55 16 -23 27
-29 44 -29 81 0 48 -15 71 -56 83 -32 10 -67 -8 -113 -55 l-40 -42 -43 38
c-183 164 -166 327 42 409 25 10 70 22 100 28 147 26 422 28 449 3z m-871 -80
c20 -6 22 -11 16 -43 -17 -91 -19 -92 -48 -28 -31 69 -33 89 -8 82 9 -2 27 -7
40 -11z m-1007 -382 c19 -19 32 -21 113 -22 65 0 108 -6 150 -20 75 -27 83
-34 91 -84 12 -66 79 -203 140 -282 53 -68 251 -255 337 -318 37 -27 39 -30
33 -67 -8 -50 25 -176 61 -230 42 -63 156 -153 257 -203 120 -59 254 -92 370
-91 100 1 99 2 64 -78 -29 -65 -98 -131 -175 -166 -52 -24 -68 -26 -187 -26
l-130 0 -105 59 c-117 66 -239 150 -379 264 -51 42 -110 90 -131 106 -277 218
-546 494 -677 698 -89 136 -145 324 -123 406 24 88 106 177 210 225 l55 26 3
-87 c2 -72 7 -92 23 -110z m1041 100 c35 -80 95 -152 184 -218 93 -70 96 -91
16 -111 -73 -19 -101 -35 -155 -91 -52 -53 -60 -90 -30 -133 16 -23 16 -24 -8
-39 -13 -9 -47 -38 -76 -65 l-52 -48 -25 18 c-58 44 -196 174 -251 236 -64 73
-133 203 -134 253 -1 26 5 32 42 48 23 9 58 31 77 49 61 54 165 97 255 105 64
5 83 11 100 29 11 12 23 22 26 23 3 1 17 -25 31 -56z m-1374 -574 c9 -17 41
-64 70 -104 28 -40 52 -78 52 -84 0 -5 -17 -13 -37 -17 -85 -15 -162 -77 -189
-152 -57 -161 62 -335 231 -336 112 0 215 82 232 186 3 21 9 40 13 43 12 7
145 -134 135 -144 -6 -5 -36 -19 -68 -30 -128 -44 -225 -120 -302 -235 -40
-60 -63 -86 -77 -86 -31 0 -166 74 -228 125 -112 92 -161 201 -163 363 -2 189
76 349 226 463 29 21 60 39 70 39 10 0 26 -14 35 -31z"/>
</g>
</svg>
